{
  "accessors": [
    {
      "bufferView": 2,
      "componentType": 5126,
      "count": 5750,
      "max": [
        1.5429569482803345,
        0.8767189979553223,
        2.1071860790252686
      ],
      "min": [
        -1.5395419597625732,
        -0.18114200234413147,
        -0.012078000232577324
      ],
      "type": "VEC3"
    },
    {
      "bufferView": 2,
      "byteOffset": 69000,
      "componentType": 5126,
      "count": 5750,
      "max": [
        0.9996985197067261,
        0.9994527101516724,
        0.9999904632568359
      ],
      "min": [
        -0.9995388984680176,
        -1.0,
        -0.9996535778045654
      ],
      "type": "VEC3"
    },
    {
      "bufferView": 1,
      "componentType": 5126,
      "count": 5750,
      "max": [
        0.9949730038642883,
        0.9934840202331543
      ],
      "min": [
        0.007468999829143286,
        0.004929000046104193
      ],
      "type": "VEC2"
    },
    {
      "bufferView": 0,
      "componentType": 5125,
      "count": 24816,
      "type": "SCALAR"
    },
    {
      "bufferView": 2,
      "byteOffset": 138000,
      "componentType": 5126,
      "count": 146,
      "max": [
        0.16096700727939606,
        0.13270500302314758,
        1.9465290307998657
      ],
      "min": [
        -0.16011600196361542,
        0.020901000127196312,
        1.8409039974212646
      ],
      "type": "VEC3"
    },
    {
      "bufferView": 2,
      "byteOffset": 139752,
      "componentType": 5126,
      "count": 146,
      "max": [
        0.9644401669502258,
        1.0,
        0.9446450471878052
      ],
      "min": [
        -0.9644402861595154,
        -1.0,
        -0.9644381403923035
      ],
      "type": "VEC3"
    },
    {
      "bufferView": 1,
      "byteOffset": 46000,
      "componentType": 5126,
      "count": 146,
      "max": [
        0.9658520221710205,
        0.97120201587677
      ],
      "min": [
        0.029600000008940697,
        0.034940000623464584
      ],
      "type": "VEC2"
    },
    {
      "bufferView": 0,
      "byteOffset": 99264,
      "componentType": 5125,
      "count": 576,
      "type": "SCALAR"
    }
  ],
  "asset": {
    "extras": {
      "author": "Nyilonelycompany (https://sketchfab.com/Nyilonelycompany)",
      "license": "CC-BY-4.0 (http://creativecommons.org/licenses/by/4.0/)",
      "source": "https://sketchfab.com/3d-models/kung-fu-panda-po-t-pose-model-7afe5c5cb37d4624bddcbe64c6538b92",
      "title": "Kung- Fu Panda - Po  T pose model"
    },
    "generator": "Sketchfab-11.53.2",
    "version": "2.0"
  },
  "bufferViews": [
    {
      "buffer": 0,
      "byteLength": 101568,
      "name": "floatBufferViews",
      "target": 34963
    },
    {
      "buffer": 0,
      "byteLength": 47168,
      "byteOffset": 101568,
      "byteStride": 8,
      "name": "floatBufferViews",
      "target": 34962
    },
    {
      "buffer": 0,
      "byteLength": 141504,
      "byteOffset": 148736,
      "byteStride": 12,
      "name": "floatBufferViews",
      "target": 34962
    }
  ],
  "buffers": [
    {
      "byteLength": 290240,
      "uri": "scene.bin"
    }
  ],
  "images": [
    {
      "uri": "textures/body_baseColor.png"
    },
    {
      "uri": "textures/eyes_baseColor.png"
    }
  ],
  "materials": [
    {
      "doubleSided": true,
      "name": "body",
      "pbrMetallicRoughness": {
        "baseColorTexture": {
          "index": 0
        },
        "metallicFactor": 0.0,
        "roughnessFactor": 0.8434915419926713
      }
    },
    {
      "doubleSided": true,
      "name": "eyes",
      "pbrMetallicRoughness": {
        "baseColorTexture": {
          "index": 1
        },
        "metallicFactor": 0.0,
        "roughnessFactor": 0.8434915419926713
      }
    }
  ],
  "meshes": [
    {
      "name": "Object_0",
      "primitives": [
        {
          "attributes": {
            "NORMAL": 1,
            "POSITION": 0,
            "TEXCOORD_0": 2
          },
          "indices": 3,
          "material": 0,
          "mode": 4
        }
      ]
    },
    {
      "name": "Object_1",
      "primitives": [
        {
          "attributes": {
            "NORMAL": 5,
            "POSITION": 4,
            "TEXCOORD_0": 6
          },
          "indices": 7,
          "material": 1,
          "mode": 4
        }
      ]
    }
  ],
  "nodes": [
    {
      "children": [
        1
      ],
      "matrix": [
        1.0,
        0.0,
        0.0,
        0.0,
        0.0,
        2.220446049250313e-16,
        -1.0,
        0.0,
        0.0,
        1.0,
        2.220446049250313e-16,
        0.0,
        0.0,
        0.0,
        0.0,
        1.0
      ],
      "name": "Sketchfab_model"
    },
    {
      "children": [
        2,
        3
      ],
      "name": "Po.obj.cleaner.materialmerger.gles"
    },
    {
      "mesh": 0,
      "name": "Object_2"
    },
    {
      "mesh": 1,
      "name": "Object_3"
    }
  ],
  "samplers": [
    {
      "magFilter": 9729,
      "minFilter": 9987,
      "wrapS": 10497,
      "wrapT": 10497
    }
  ],
  "scene": 0,
  "scenes": [
    {
      "name": "Sketchfab_Scene",
      "nodes": [
        0
      ]
    }
  ],
  "textures": [
    {
      "sampler": 0,
      "source": 0
    },
    {
      "sampler": 0,
      "source": 1
    }
  ]
}
